<svg width="146" height="77" viewBox="0 0 146 77" fill="none" xmlns="http://www.w3.org/2000/svg">
<path fill-rule="evenodd" clip-rule="evenodd" d="M13.1269 19.1773C10.291 22.0121 10.291 26.6576 13.1269 29.4925L21.0738 37.4394L13.1269 45.3862C10.291 48.2221 10.291 52.8666 13.1269 55.7014C15.9618 58.5363 20.6072 58.5363 23.4421 55.7014L33.3915 45.752C37.9621 41.1814 37.9621 33.6973 33.3915 29.1267L23.4421 19.1773C22.0242 17.7593 20.155 17.0509 18.285 17.0509C16.4149 17.0509 14.5448 17.7593 13.1278 19.1773H13.1269Z" fill="#920D4D"/>
<path fill-rule="evenodd" clip-rule="evenodd" d="M21.6546 21.0061C21.6546 30.4736 24.2763 37.7706 29.5208 42.896C30.6747 44.025 31.9122 45.0291 33.2331 45.9094L33.3915 45.751C37.9621 41.1805 37.9621 33.6963 33.3915 29.1258L23.4421 19.1763C22.9035 18.6377 22.2997 18.2009 21.6555 17.8678V21.0061H21.6546Z" fill="#F40F5E"/>
<path fill-rule="evenodd" clip-rule="evenodd" d="M13.1269 45.3862C10.291 48.2221 10.291 52.8666 13.1269 55.7014C15.813 58.3875 20.1224 58.5286 22.9794 56.1267C23.0418 50.3773 21.8379 44.5213 19.6818 38.8314L13.1269 45.3862Z" fill="#6C14AC"/>
<path fill-rule="evenodd" clip-rule="evenodd" d="M41.3509 17.001C45.38 17.001 48.6459 20.2669 48.6459 24.297C48.6459 28.3261 45.38 31.592 41.3509 31.592C37.3218 31.592 34.0558 28.3261 34.0558 24.297C34.0558 20.2679 37.3218 17.001 41.3509 17.001Z" fill="#E54722"/>
<path fill-rule="evenodd" clip-rule="evenodd" d="M36.1947 19.1283C38.0754 20.1747 40.0683 20.8822 42.1746 21.0925C44.2203 21.4026 46.1768 21.4842 48.0411 21.3632C47.6878 20.551 47.181 19.7907 46.5186 19.1283C45.0997 17.7094 43.2277 17 41.3566 17C39.4856 17 37.6146 17.7094 36.1957 19.1274L36.1947 19.1283Z" fill="#7331F3"/>
<path fill-rule="evenodd" clip-rule="evenodd" d="M36.1938 29.4531C39.045 32.3043 43.6664 32.3043 46.5176 29.4531C47.3144 28.6563 47.8875 27.7165 48.237 26.7142C43.7931 24.5245 39.1486 23.0288 34.3938 22.089C33.6008 24.6022 34.2008 27.4602 36.1938 29.4531Z" fill="#FEBA7E"/>
<path d="M41.6886 36.0151H43.1233L44.5047 38.6241H44.5639L45.9453 36.0151H47.38L45.1703 39.9316V42.0733H43.8983V39.9316L41.6886 36.0151ZM51.8215 36.0151H53.1024V39.9494C53.1024 40.3911 52.9969 40.7776 52.7859 41.1089C52.5768 41.4402 52.284 41.6986 51.9073 41.884C51.5306 42.0674 51.0919 42.1591 50.591 42.1591C50.0881 42.1591 49.6483 42.0674 49.2716 41.884C48.895 41.6986 48.6021 41.4402 48.3931 41.1089C48.1841 40.7776 48.0795 40.3911 48.0795 39.9494V36.0151H49.3604V39.8399C49.3604 40.0706 49.4107 40.2757 49.5113 40.4552C49.6138 40.6347 49.7578 40.7757 49.9431 40.8782C50.1285 40.9807 50.3444 41.032 50.591 41.032C50.8394 41.032 51.0554 40.9807 51.2388 40.8782C51.4241 40.7757 51.5671 40.6347 51.6677 40.4552C51.7702 40.2757 51.8215 40.0706 51.8215 39.8399V36.0151ZM58.1733 37.9734C58.1319 37.8294 58.0737 37.7022 57.9987 37.5918C57.9238 37.4793 57.8321 37.3847 57.7236 37.3078C57.6171 37.2289 57.4949 37.1687 57.3568 37.1273C57.2208 37.0859 57.0699 37.0652 56.9042 37.0652C56.5946 37.0652 56.3225 37.1421 56.0878 37.2959C55.8551 37.4498 55.6737 37.6736 55.5435 37.9674C55.4134 38.2593 55.3483 38.6162 55.3483 39.0383C55.3483 39.4603 55.4124 39.8192 55.5406 40.115C55.6688 40.4108 55.8502 40.6366 56.0849 40.7924C56.3195 40.9462 56.5966 41.0231 56.9161 41.0231C57.206 41.0231 57.4535 40.9719 57.6586 40.8693C57.8656 40.7648 58.0234 40.6179 58.1319 40.4286C58.2423 40.2393 58.2975 40.0154 58.2975 39.7571L58.5578 39.7955H56.9959V38.8312H59.531V39.5944C59.531 40.1268 59.4186 40.5844 59.1938 40.9669C58.969 41.3476 58.6594 41.6414 58.265 41.8485C57.8706 42.0536 57.419 42.1561 56.9102 42.1561C56.3422 42.1561 55.8433 42.0309 55.4134 41.7804C54.9835 41.528 54.6482 41.1701 54.4076 40.7066C54.169 40.2412 54.0497 39.689 54.0497 39.0501C54.0497 38.5591 54.1207 38.1213 54.2627 37.7367C54.4066 37.3502 54.6078 37.0228 54.8661 36.7546C55.1245 36.4864 55.4252 36.2823 55.7683 36.1423C56.1115 36.0023 56.4832 35.9323 56.8835 35.9323C57.2267 35.9323 57.5461 35.9826 57.842 36.0831C58.1378 36.1817 58.4001 36.3217 58.6288 36.5032C58.8595 36.6846 59.0479 36.9005 59.1938 37.151C59.3397 37.3995 59.4334 37.6736 59.4748 37.9734H58.1733ZM61.3502 42.0733H59.9777L62.0691 36.0151H63.7197L65.8081 42.0733H64.4355L62.918 37.3995H62.8707L61.3502 42.0733ZM61.2645 39.692H64.5065V40.6918H61.2645V39.692ZM71.6044 36.0151V42.0733H70.4981L67.8625 38.2603H67.8181V42.0733H66.5372V36.0151H67.6613L70.2763 39.8251H70.3295V36.0151H71.6044ZM74.8103 42.0733H72.6627V36.0151H74.828C75.4374 36.0151 75.962 36.1364 76.4017 36.3789C76.8415 36.6195 77.1797 36.9656 77.4163 37.4172C77.655 37.8688 77.7743 38.4092 77.7743 39.0383C77.7743 39.6693 77.655 40.2116 77.4163 40.6652C77.1797 41.1188 76.8395 41.4669 76.3958 41.7094C75.9541 41.952 75.4256 42.0733 74.8103 42.0733ZM73.9436 40.9758H74.757C75.1357 40.9758 75.4541 40.9088 75.7125 40.7747C75.9728 40.6386 76.168 40.4286 76.2982 40.1446C76.4303 39.8586 76.4964 39.4899 76.4964 39.0383C76.4964 38.5906 76.4303 38.2248 76.2982 37.9408C76.168 37.6568 75.9738 37.4478 75.7154 37.3137C75.4571 37.1796 75.1386 37.1125 74.76 37.1125H73.9436V40.9758ZM78.7231 42.0733V36.0151H80.0039V38.5147H82.6041V36.0151H83.882V42.0733H82.6041V39.5707H80.0039V42.0733H78.7231ZM85.9822 42.0733H84.6097L86.701 36.0151H88.3516L90.4401 42.0733H89.0675L87.55 37.3995H87.5027L85.9822 42.0733ZM85.8964 39.692H89.1385V40.6918H85.8964V39.692ZM91.1692 42.0733V36.0151H93.5594C94.0169 36.0151 94.4073 36.0969 94.7308 36.2606C95.0561 36.4223 95.3036 36.6521 95.4732 36.9498C95.6448 37.2457 95.7306 37.5937 95.7306 37.9941C95.7306 38.3964 95.6438 38.7425 95.4703 39.0323C95.2967 39.3203 95.0453 39.5411 94.716 39.695C94.3886 39.8488 93.9922 39.9257 93.5268 39.9257H91.9265V38.8963H93.3197C93.5643 38.8963 93.7674 38.8628 93.9291 38.7957C94.0908 38.7287 94.2111 38.6281 94.29 38.494C94.3709 38.3599 94.4113 38.1932 94.4113 37.9941C94.4113 37.7929 94.3709 37.6233 94.29 37.4853C94.2111 37.3472 94.0898 37.2427 93.9262 37.1717C93.7644 37.0987 93.5603 37.0623 93.3138 37.0623H92.4501V42.0733H91.1692ZM94.4409 39.3163L95.9465 42.0733H94.5326L93.0594 39.3163H94.4409ZM97.68 42.0733H96.3074L98.3988 36.0151H100.049L102.138 42.0733H100.765L99.2477 37.3995H99.2004L97.68 42.0733ZM97.5942 39.692H100.836V40.6918H97.5942V39.692Z" fill="#1A1A1A"/>
<path d="M45.33 45.3539C45.3063 45.1153 45.2048 44.9299 45.0253 44.7978C44.8459 44.6657 44.6023 44.5996 44.2947 44.5996C44.0856 44.5996 43.9091 44.6292 43.7652 44.6883C43.6212 44.7455 43.5108 44.8254 43.4339 44.9279C43.3589 45.0305 43.3215 45.1468 43.3215 45.277C43.3175 45.3855 43.3402 45.4801 43.3895 45.561C43.4408 45.6418 43.5108 45.7118 43.5995 45.771C43.6883 45.8282 43.7908 45.8785 43.9072 45.9219C44.0235 45.9633 44.1478 45.9988 44.2799 46.0284L44.8242 46.1585C45.0884 46.2177 45.331 46.2966 45.5519 46.3952C45.7727 46.4938 45.964 46.615 46.1257 46.759C46.2874 46.903 46.4127 47.0726 46.5014 47.2678C46.5921 47.463 46.6385 47.6869 46.6404 47.9393C46.6385 48.31 46.5438 48.6315 46.3565 48.9036C46.1711 49.1738 45.9029 49.3838 45.5519 49.5337C45.2028 49.6816 44.7818 49.7556 44.2888 49.7556C43.7997 49.7556 43.3737 49.6806 43.0109 49.5307C42.65 49.3809 42.368 49.159 42.1648 48.8652C41.9637 48.5694 41.8582 48.2035 41.8483 47.7677H43.0878C43.1016 47.9708 43.1598 48.1404 43.2623 48.2765C43.3668 48.4106 43.5058 48.5122 43.6794 48.5812C43.8549 48.6482 44.0531 48.6818 44.274 48.6818C44.4909 48.6818 44.6792 48.6502 44.839 48.5871C45.0007 48.524 45.1259 48.4362 45.2146 48.3238C45.3034 48.2114 45.3477 48.0823 45.3477 47.9363C45.3477 47.8003 45.3073 47.6859 45.2265 47.5932C45.1476 47.5005 45.0312 47.4216 44.8774 47.3565C44.7256 47.2915 44.5392 47.2323 44.3183 47.1791L43.6587 47.0134C43.1479 46.8892 42.7446 46.6949 42.4488 46.4307C42.153 46.1664 42.0061 45.8104 42.0081 45.3628C42.0061 44.996 42.1037 44.6755 42.3009 44.4014C42.5001 44.1273 42.7732 43.9133 43.1203 43.7595C43.4674 43.6057 43.8618 43.5288 44.3035 43.5288C44.7532 43.5288 45.1456 43.6057 45.4809 43.7595C45.8181 43.9133 46.0804 44.1273 46.2677 44.4014C46.4551 44.6755 46.5517 44.993 46.5576 45.3539H45.33ZM47.2712 44.6676V43.6116H52.2467V44.6676H50.392V49.6698H49.126V44.6676H47.2712ZM53.0661 49.6698V43.6116H55.4563C55.9138 43.6116 56.3042 43.6934 56.6277 43.8571C56.9531 44.0188 57.2005 44.2486 57.3701 44.5463C57.5417 44.8422 57.6275 45.1902 57.6275 45.5906C57.6275 45.9929 57.5407 46.339 57.3672 46.6288C57.1936 46.9168 56.9422 47.1376 56.6129 47.2915C56.2855 47.4453 55.8891 47.5222 55.4237 47.5222H53.8234V46.4928H55.2167C55.4612 46.4928 55.6643 46.4592 55.826 46.3922C55.9877 46.3251 56.108 46.2246 56.1869 46.0905C56.2678 45.9564 56.3082 45.7897 56.3082 45.5906C56.3082 45.3894 56.2678 45.2198 56.1869 45.0818C56.108 44.9437 55.9867 44.8392 55.8231 44.7682C55.6614 44.6952 55.4573 44.6588 55.2107 44.6588H54.347V49.6698H53.0661ZM56.3378 46.9128L57.8434 49.6698H56.4295L54.9563 46.9128H56.3378ZM59.5769 49.6698H58.2043L60.2957 43.6116H61.9463L64.0347 49.6698H62.6622L61.1447 44.996H61.0973L59.5769 49.6698ZM59.4911 47.2885H62.7332V48.2883H59.4911V47.2885ZM63.7929 44.6676V43.6116H68.7684V44.6676H66.9137V49.6698H65.6476V44.6676H63.7929ZM69.5878 49.6698V43.6116H73.6699V44.6676H70.8686V46.1112H73.4599V47.1672H70.8686V48.6137H73.6818V49.6698H69.5878ZM78.7053 45.5698C78.6639 45.4259 78.6057 45.2987 78.5308 45.1883C78.4559 45.0758 78.3642 44.9812 78.2557 44.9043C78.1492 44.8254 78.0269 44.7652 77.8889 44.7238C77.7528 44.6824 77.602 44.6617 77.4363 44.6617C77.1267 44.6617 76.8546 44.7386 76.6199 44.8924C76.3872 45.0463 76.2057 45.2701 76.0756 45.5639C75.9454 45.8558 75.8804 46.2127 75.8804 46.6348C75.8804 47.0568 75.9445 47.4157 76.0726 47.7115C76.2008 48.0073 76.3822 48.2331 76.6169 48.3889C76.8516 48.5427 77.1287 48.6196 77.4481 48.6196C77.738 48.6196 77.9855 48.5684 78.1906 48.4658C78.3977 48.3613 78.5555 48.2144 78.6639 48.0251C78.7744 47.8357 78.8296 47.6119 78.8296 47.3536L79.0899 47.392H77.528V46.4277H80.0631V47.1909C80.0631 47.7233 79.9507 48.1809 79.7259 48.5634C79.5011 48.944 79.1914 49.2379 78.797 49.445C78.4026 49.65 77.951 49.7526 77.4422 49.7526C76.8743 49.7526 76.3753 49.6274 75.9454 49.3769C75.5155 49.1245 75.1803 48.7666 74.9397 48.3031C74.7011 47.8377 74.5818 47.2855 74.5818 46.6466C74.5818 46.1556 74.6528 45.7178 74.7947 45.3332C74.9387 44.9467 75.1399 44.6193 75.3982 44.3511C75.6565 44.0829 75.9573 43.8788 76.3004 43.7388C76.6435 43.5988 77.0153 43.5288 77.4156 43.5288C77.7587 43.5288 78.0782 43.579 78.374 43.6796C78.6698 43.7782 78.9321 43.9182 79.1609 44.0997C79.3916 44.2811 79.5799 44.497 79.7259 44.7475C79.8718 44.996 79.9655 45.2701 80.0069 45.5698H78.7053ZM82.3061 43.6116V49.6698H81.0252V43.6116H82.3061ZM88.7051 45.7325H87.4095C87.3858 45.5649 87.3375 45.416 87.2645 45.2859C87.1916 45.1537 87.0979 45.0413 86.9835 44.9486C86.8692 44.856 86.737 44.785 86.5871 44.7357C86.4392 44.6864 86.2785 44.6617 86.105 44.6617C85.7914 44.6617 85.5183 44.7396 85.2856 44.8954C85.0529 45.0492 84.8724 45.274 84.7443 45.5698C84.6161 45.8637 84.552 46.2206 84.552 46.6407C84.552 47.0726 84.6161 47.4354 84.7443 47.7293C84.8744 48.0231 85.0558 48.245 85.2885 48.3948C85.5213 48.5447 85.7904 48.6196 86.0961 48.6196C86.2677 48.6196 86.4264 48.597 86.5724 48.5516C86.7203 48.5063 86.8514 48.4402 86.9658 48.3534C87.0802 48.2647 87.1748 48.1572 87.2498 48.031C87.3267 47.9048 87.3799 47.7608 87.4095 47.5991L88.7051 47.605C88.6716 47.8831 88.5878 48.1513 88.4537 48.4096C88.3216 48.666 88.1431 48.8957 87.9183 49.0989C87.6954 49.3 87.4292 49.4597 87.1196 49.5781C86.812 49.6944 86.4639 49.7526 86.0754 49.7526C85.5351 49.7526 85.0519 49.6303 84.6259 49.3858C84.2019 49.1413 83.8667 48.7873 83.6202 48.3238C83.3757 47.8604 83.2534 47.2993 83.2534 46.6407C83.2534 45.98 83.3776 45.418 83.6261 44.9546C83.8746 44.4911 84.2118 44.1381 84.6378 43.8956C85.0637 43.651 85.5429 43.5288 86.0754 43.5288C86.4264 43.5288 86.7518 43.5781 87.0516 43.6767C87.3533 43.7753 87.6205 43.9192 87.8532 44.1085C88.0859 44.2959 88.2752 44.5256 88.4212 44.7978C88.5691 45.0699 88.6637 45.3815 88.7051 45.7325ZM91.5516 49.6698V43.6116H92.8324V46.1112H95.4326V43.6116H96.7105V49.6698H95.4326V47.1672H92.8324V49.6698H91.5516ZM103.334 46.6407C103.334 47.3013 103.208 47.8634 102.958 48.3268C102.709 48.7902 102.37 49.1442 101.94 49.3888C101.512 49.6313 101.031 49.7526 100.497 49.7526C99.9584 49.7526 99.4753 49.6303 99.0473 49.3858C98.6194 49.1413 98.2812 48.7873 98.0327 48.3238C97.7842 47.8604 97.66 47.2993 97.66 46.6407C97.66 45.98 97.7842 45.418 98.0327 44.9546C98.2812 44.4911 98.6194 44.1381 99.0473 43.8956C99.4753 43.651 99.9584 43.5288 100.497 43.5288C101.031 43.5288 101.512 43.651 101.94 43.8956C102.37 44.1381 102.709 44.4911 102.958 44.9546C103.208 45.418 103.334 45.98 103.334 46.6407ZM102.035 46.6407C102.035 46.2127 101.971 45.8519 101.843 45.558C101.717 45.2642 101.538 45.0413 101.307 44.8895C101.077 44.7376 100.806 44.6617 100.497 44.6617C100.187 44.6617 99.917 44.7376 99.6863 44.8895C99.4556 45.0413 99.2761 45.2642 99.1479 45.558C99.0217 45.8519 98.9586 46.2127 98.9586 46.6407C98.9586 47.0686 99.0217 47.4295 99.1479 47.7233C99.2761 48.0172 99.4556 48.24 99.6863 48.3919C99.917 48.5437 100.187 48.6196 100.497 48.6196C100.806 48.6196 101.077 48.5437 101.307 48.3919C101.538 48.24 101.717 48.0172 101.843 47.7233C101.971 47.4295 102.035 47.0686 102.035 46.6407ZM104.282 49.6698V43.6116H105.563V48.6137H108.16V49.6698H104.282ZM111.156 49.6698H109.009V43.6116H111.174C111.783 43.6116 112.308 43.7329 112.748 43.9754C113.187 44.216 113.526 44.5621 113.762 45.0137C114.001 45.4653 114.12 46.0057 114.12 46.6348C114.12 47.2658 114.001 47.8081 113.762 48.2617C113.526 48.7153 113.186 49.0634 112.742 49.3059C112.3 49.5485 111.772 49.6698 111.156 49.6698ZM110.29 48.5723H111.103C111.482 48.5723 111.8 48.5053 112.058 48.3712C112.319 48.2351 112.514 48.0251 112.644 47.7411C112.776 47.4551 112.842 47.0864 112.842 46.6348C112.842 46.1871 112.776 45.8213 112.644 45.5373C112.514 45.2533 112.32 45.0443 112.061 44.9102C111.803 44.7761 111.485 44.709 111.106 44.709H110.29V48.5723ZM116.35 43.6116V49.6698H115.069V43.6116H116.35ZM122.471 43.6116V49.6698H121.365L118.729 45.8568H118.685V49.6698H117.404V43.6116H118.528L121.143 47.4216H121.196V43.6116H122.471ZM127.546 45.5698C127.505 45.4259 127.447 45.2987 127.372 45.1883C127.297 45.0758 127.205 44.9812 127.097 44.9043C126.99 44.8254 126.868 44.7652 126.73 44.7238C126.594 44.6824 126.443 44.6617 126.277 44.6617C125.968 44.6617 125.695 44.7386 125.461 44.8924C125.228 45.0463 125.047 45.2701 124.917 45.5639C124.786 45.8558 124.721 46.2127 124.721 46.6348C124.721 47.0568 124.785 47.4157 124.914 47.7115C125.042 48.0073 125.223 48.2331 125.458 48.3889C125.693 48.5427 125.97 48.6196 126.289 48.6196C126.579 48.6196 126.826 48.5684 127.032 48.4658C127.239 48.3613 127.396 48.2144 127.505 48.0251C127.615 47.8357 127.671 47.6119 127.671 47.3536L127.931 47.392H126.369V46.4277H128.904V47.1909C128.904 47.7233 128.792 48.1809 128.567 48.5634C128.342 48.944 128.032 49.2379 127.638 49.445C127.244 49.65 126.792 49.7526 126.283 49.7526C125.715 49.7526 125.216 49.6274 124.786 49.3769C124.356 49.1245 124.021 48.7666 123.781 48.3031C123.542 47.8377 123.423 47.2855 123.423 46.6466C123.423 46.1556 123.494 45.7178 123.636 45.3332C123.78 44.9467 123.981 44.6193 124.239 44.3511C124.497 44.0829 124.798 43.8788 125.141 43.7388C125.484 43.5988 125.856 43.5288 126.257 43.5288C126.6 43.5288 126.919 43.579 127.215 43.6796C127.511 43.7782 127.773 43.9182 128.002 44.0997C128.233 44.2811 128.421 44.497 128.567 44.7475C128.713 44.996 128.806 45.2701 128.848 45.5698H127.546ZM133.153 45.3539C133.129 45.1153 133.027 44.9299 132.848 44.7978C132.668 44.6657 132.425 44.5996 132.117 44.5996C131.908 44.5996 131.732 44.6292 131.588 44.6883C131.444 44.7455 131.333 44.8254 131.256 44.9279C131.182 45.0305 131.144 45.1468 131.144 45.277C131.14 45.3855 131.163 45.4801 131.212 45.561C131.263 45.6418 131.333 45.7118 131.422 45.771C131.511 45.8282 131.613 45.8785 131.73 45.9219C131.846 45.9633 131.97 45.9988 132.102 46.0284L132.647 46.1585C132.911 46.2177 133.154 46.2966 133.374 46.3952C133.595 46.4938 133.787 46.615 133.948 46.759C134.11 46.903 134.235 47.0726 134.324 47.2678C134.415 47.463 134.461 47.6869 134.463 47.9393C134.461 48.31 134.366 48.6315 134.179 48.9036C133.994 49.1738 133.725 49.3838 133.374 49.5337C133.025 49.6816 132.604 49.7556 132.111 49.7556C131.622 49.7556 131.196 49.6806 130.833 49.5307C130.473 49.3809 130.191 49.159 129.987 48.8652C129.786 48.5694 129.681 48.2035 129.671 47.7677H130.91C130.924 47.9708 130.982 48.1404 131.085 48.2765C131.189 48.4106 131.328 48.5122 131.502 48.5812C131.677 48.6482 131.876 48.6818 132.097 48.6818C132.313 48.6818 132.502 48.6502 132.662 48.5871C132.823 48.524 132.948 48.4362 133.037 48.3238C133.126 48.2114 133.17 48.0823 133.17 47.9363C133.17 47.8003 133.13 47.6859 133.049 47.5932C132.97 47.5005 132.854 47.4216 132.7 47.3565C132.548 47.2915 132.362 47.2323 132.141 47.1791L131.481 47.0134C130.97 46.8892 130.567 46.6949 130.271 46.4307C129.976 46.1664 129.829 45.8104 129.831 45.3628C129.829 44.996 129.926 44.6755 130.123 44.4014C130.323 44.1273 130.596 43.9133 130.943 43.7595C131.29 43.6057 131.684 43.5288 132.126 43.5288C132.576 43.5288 132.968 43.6057 133.303 43.7595C133.641 43.9133 133.903 44.1273 134.09 44.4014C134.278 44.6755 134.374 44.993 134.38 45.3539H133.153Z" fill="#1A1A1A"/>
</svg>
